<?xml version="1.0" encoding="UTF-8" standalone="no" ?><svg width="400" height="400" viewBox="0 0 128 128" xmlns="http://www.w3.org/2000/svg"><g fill="rgb(255,76,41)" stroke="none"><rect x="0" y="0" width="128" height="128" /></g><g fill="rgb(0,0,0)" stroke="none"><path d="M0 0h128v1H0ZM0 1h128v1H0ZM0 2h128v1H0ZM0 3h128v1H0ZM0 4h57v1H0ZM71 4h57v1H71ZM0 5h51v1H0ZM77 5h51v1H77ZM0 6h47v1H0ZM81 6h47v1H81ZM0 7h44v1H0ZM84 7h44v1H84ZM0 8h41v1H0ZM87 8h41v1H87ZM0 9h39v1H0ZM89 9h39v1H89ZM0 10h37v1H0ZM91 10h37v1H91ZM0 11h35v1H0ZM93 11h35v1H93ZM0 12h33v1H0ZM95 12h33v1H95ZM0 13h32v1H0ZM96 13h32v1H96ZM0 14h30v1H0ZM98 14h30v1H98ZM0 15h29v1H0ZM99 15h29v1H99ZM0 16h27v1H0ZM101 16h27v1H101ZM0 17h26v1H0ZM102 17h26v1H102ZM0 18h25v1H0ZM103 18h25v1H103ZM0 19h24v1H0ZM104 19h24v1H104ZM0 20h23v1H0ZM105 20h23v1H105ZM0 21h22v1H0ZM106 21h22v1H106ZM0 22h21v1H0ZM107 22h21v1H107ZM0 23h20v1H0ZM108 23h20v1H108ZM0 24h19v1H0ZM109 24h19v1H109ZM0 25h18v1H0ZM110 25h18v1H110ZM0 26h17v1H0ZM111 26h17v1H111ZM0 27h16v1H0ZM112 27h16v1H112ZM0 28h16v1H0ZM112 28h16v1H112ZM0 29h15v1H0ZM113 29h15v1H113ZM0 30h14v1H0ZM114 30h14v1H114ZM0 31h14v1H0ZM114 31h14v1H114ZM0 32h13v1H0ZM115 32h13v1H115ZM0 33h12v1H0ZM116 33h12v1H116ZM0 34h12v1H0ZM116 34h12v1H116ZM0 35h11v1H0ZM117 35h11v1H117ZM0 36h11v1H0ZM117 36h11v1H117ZM0 37h10v1H0ZM118 37h10v1H118ZM0 38h10v1H0ZM118 38h10v1H118ZM0 39h9v1H0ZM119 39h9v1H119ZM0 40h9v1H0ZM119 40h9v1H119ZM0 41h8v1H0ZM120 41h8v1H120ZM0 42h8v1H0ZM120 42h8v1H120ZM0 43h8v1H0ZM120 43h8v1H120ZM0 44h7v1H0ZM121 44h7v1H121ZM0 45h7v1H0ZM121 45h7v1H121ZM0 46h7v1H0ZM121 46h7v1H121ZM0 47h6v1H0ZM122 47h6v1H122ZM0 48h6v1H0ZM122 48h6v1H122ZM0 49h6v1H0ZM122 49h6v1H122ZM0 50h6v1H0ZM122 50h6v1H122ZM0 51h5v1H0ZM123 51h5v1H123ZM0 52h5v1H0ZM123 52h5v1H123ZM0 53h5v1H0ZM123 53h5v1H123ZM0 54h5v1H0ZM123 54h5v1H123ZM0 55h5v1H0ZM123 55h5v1H123ZM0 56h5v1H0ZM123 56h5v1H123ZM0 57h4v1H0ZM124 57h4v1H124ZM0 58h4v1H0ZM124 58h4v1H124ZM0 59h4v1H0ZM124 59h4v1H124ZM0 60h4v1H0ZM124 60h4v1H124ZM0 61h4v1H0ZM124 61h4v1H124ZM0 62h4v1H0ZM124 62h4v1H124ZM0 63h4v1H0ZM124 63h4v1H124ZM0 64h4v1H0ZM124 64h4v1H124ZM0 65h4v1H0ZM124 65h4v1H124ZM0 66h4v1H0ZM124 66h4v1H124ZM0 67h4v1H0ZM124 67h4v1H124ZM0 68h4v1H0ZM124 68h4v1H124ZM0 69h4v1H0ZM124 69h4v1H124ZM0 70h4v1H0ZM124 70h4v1H124ZM0 71h5v1H0ZM123 71h5v1H123ZM0 72h5v1H0ZM123 72h5v1H123ZM0 73h5v1H0ZM123 73h5v1H123ZM0 74h5v1H0ZM123 74h5v1H123ZM0 75h5v1H0ZM123 75h5v1H123ZM0 76h5v1H0ZM123 76h5v1H123ZM0 77h6v1H0ZM122 77h6v1H122ZM0 78h6v1H0ZM122 78h6v1H122ZM0 79h6v1H0ZM122 79h6v1H122ZM0 80h6v1H0ZM122 80h6v1H122ZM0 81h7v1H0ZM121 81h7v1H121ZM0 82h7v1H0ZM121 82h7v1H121ZM0 83h7v1H0ZM121 83h7v1H121ZM0 84h8v1H0ZM120 84h8v1H120ZM0 85h8v1H0ZM120 85h8v1H120ZM0 86h8v1H0ZM120 86h8v1H120ZM0 87h9v1H0ZM119 87h9v1H119ZM0 88h9v1H0ZM119 88h9v1H119ZM0 89h10v1H0ZM118 89h10v1H118ZM0 90h10v1H0ZM118 90h10v1H118ZM0 91h11v1H0ZM117 91h11v1H117ZM0 92h11v1H0ZM117 92h11v1H117ZM0 93h12v1H0ZM116 93h12v1H116ZM0 94h12v1H0ZM116 94h12v1H116ZM0 95h13v1H0ZM115 95h13v1H115ZM0 96h14v1H0ZM114 96h14v1H114ZM0 97h14v1H0ZM114 97h14v1H114ZM0 98h15v1H0ZM113 98h15v1H113ZM0 99h16v1H0ZM112 99h16v1H112ZM0 100h16v1H0ZM112 100h16v1H112ZM0 101h17v1H0ZM111 101h17v1H111ZM0 102h18v1H0ZM110 102h18v1H110ZM0 103h19v1H0ZM109 103h19v1H109ZM0 104h20v1H0ZM108 104h20v1H108ZM0 105h21v1H0ZM107 105h21v1H107ZM0 106h22v1H0ZM106 106h22v1H106ZM0 107h23v1H0ZM105 107h23v1H105ZM0 108h24v1H0ZM104 108h24v1H104ZM0 109h25v1H0ZM103 109h25v1H103ZM0 110h26v1H0ZM102 110h26v1H102ZM0 111h27v1H0ZM101 111h27v1H101ZM0 112h29v1H0ZM99 112h29v1H99ZM0 113h30v1H0ZM98 113h30v1H98ZM0 114h32v1H0ZM96 114h32v1H96ZM0 115h33v1H0ZM95 115h33v1H95ZM0 116h35v1H0ZM93 116h35v1H93ZM0 117h37v1H0ZM91 117h37v1H91ZM0 118h39v1H0ZM89 118h39v1H89ZM0 119h41v1H0ZM87 119h41v1H87ZM0 120h44v1H0ZM84 120h44v1H84ZM0 121h47v1H0ZM81 121h47v1H81ZM0 122h51v1H0ZM77 122h51v1H77ZM0 123h57v1H0ZM71 123h57v1H71ZM0 124h128v1H0ZM0 125h128v1H0ZM0 126h128v1H0ZM0 127h128v1H0ZM41 8h1v1H41ZM86 8h1v1H86ZM27 16h1v1H27ZM100 16h1v1H100ZM16 27h1v1H16ZM111 27h1v1H111ZM8 41h1v1H8ZM119 41h1v1H119ZM8 86h1v1H8ZM119 86h1v1H119ZM16 100h1v1H16ZM111 100h1v1H111ZM27 111h1v1H27ZM100 111h1v1H100ZM41 119h1v1H41ZM86 119h1v1H86ZM33 12h1v1H33ZM94 12h1v1H94ZM12 33h1v1H12ZM115 33h1v1H115ZM12 94h1v1H12ZM115 94h1v1H115ZM33 115h1v1H33ZM94 115h1v1H94ZM57 4h1v1H57ZM70 4h1v1H70ZM4 57h1v1H4ZM123 57h1v1H123ZM4 70h1v1H4ZM123 70h1v1H123ZM57 123h1v1H57ZM70 123h1v1H70Z" /></g><g fill="rgb(32,9,5)" stroke="none"><path d="M58 4H60V5H58Z" /><path d="M69 4H70V5H68V4Z" /><path d="M39 9H40V10H39Z" /><path d="M88 9H89V10H88Z" /><path d="M26 17H27V18H26Z" /><path d="M101 17H102V18H101Z" /><path d="M17 26H18V27H17Z" /><path d="M110 26H111V27H110Z" /><path d="M9 39H10V40H9Z" /><path d="M118 39H119V40H118Z" /><path d="M4 58H5V60H4V59Z" /><path d="M123 58H124V60H123V59Z" /><path d="M4 69V70H5V68H4Z" /><path d="M123 69V70H124V68H123Z" /><path d="M9 88H10V89H9Z" /><path d="M118 88H119V89H118Z" /><path d="M17 101H18V102H17Z" /><path d="M110 101H111V102H110Z" /><path d="M26 110H27V111H26Z" /><path d="M101 110H102V111H101Z" /><path d="M39 118H40V119H39Z" /><path d="M88 118H89V119H88Z" /><path d="M58 123H60V124H58Z" /><path d="M69 123H70V124H68V123Z" /><path d="M51 5H52V6H51Z" /><path d="M76 5H77V6H76Z" /><path d="M47 6H48V7H47Z" /><path d="M80 6H81V7H80Z" /><path d="M6 47H7V48H6Z" /><path d="M121 47H122V48H121Z" /><path d="M5 51H6V52H5Z" /><path d="M122 51H123V52H122Z" /><path d="M5 76H6V77H5Z" /><path d="M122 76H123V77H122Z" /><path d="M6 80H7V81H6Z" /><path d="M121 80H122V81H121Z" /><path d="M47 121H48V122H47Z" /><path d="M80 121H81V122H80Z" /><path d="M51 122H52V123H51Z" /><path d="M76 122H77V123H76Z" /><path d="M44 7H45V8H44Z" /><path d="M83 7H84V8H83Z" /><path d="M30 14H31V15H30Z" /><path d="M97 14H98V15H97Z" /><path d="M14 30H15V31H14Z" /><path d="M113 30H114V31H113Z" /><path d="M14 97H15V98H14Z" /><path d="M113 97H114V98H113Z" /><path d="M30 113H31V114H30Z" /><path d="M97 113H98V114H97Z" /><path d="M35 11H36V12H35Z" /><path d="M92 11H93V12H92Z" /><path d="M11 35H12V36H11Z" /><path d="M116 35H117V36H116Z" /><path d="M11 92H12V93H11Z" /><path d="M116 92H117V93H116Z" /><path d="M35 116H36V117H35Z" /><path d="M92 116H93V117H92Z" /><path d="M37 10H38V11H37Z" /><path d="M90 10H91V11H90Z" /><path d="M10 37H11V38H10Z" /><path d="M117 37H118V38H117Z" /><path d="M10 90H11V91H10Z" /><path d="M117 90H118V91H117Z" /><path d="M37 117H38V118H37Z" /><path d="M90 117H91V118H90Z" /><path d="M7 44H8V45H7Z" /><path d="M120 44H121V45H120Z" /><path d="M7 83H8V84H7Z" /><path d="M120 83H121V84H120Z" /><path d="M44 120H45V121H44Z" /><path d="M83 120H84V121H83Z" /><path d="M25 18H26V19H25Z" /><path d="M25 109H26V110H25Z" /></g><g fill="rgb(190,56,30)" stroke="none"><path d="M43 8H44V9H43Z" /><path d="M84 8H85V9H84Z" /><path d="M119 43H120V44H119Z" /><path d="M119 84H120V85H119Z" /><path d="M43 119H44V120H43Z" /><path d="M84 119H85V120H84Z" /><path d="M57 37H62V38H58V39H57V38Z" /><path d="M67 37H72V39H71V38H69V39H68V38H67Z" /><path d="M46 7H47V8H46Z" /><path d="M81 7H82V8H81Z" /><path d="M7 46H8V47H7Z" /><path d="M120 46H121V47H120Z" /><path d="M7 81H8V82H7Z" /><path d="M120 81H121V82H120Z" /><path d="M46 120H47V121H46Z" /><path d="M81 120H82V121H81Z" /><path d="M27 17H28V18H27Z" /><path d="M100 17H101V18H100Z" /><path d="M17 27H18V28H17Z" /><path d="M110 27H111V28H110Z" /><path d="M17 100H18V101H17Z" /><path d="M110 100H111V101H110Z" /><path d="M27 110H28V111H27Z" /><path d="M100 110H101V111H100Z" /><path d="M31 14H32V15H31Z" /><path d="M96 14H97V15H96Z" /><path d="M14 31H15V32H14Z" /><path d="M113 31H114V32H113Z" /><path d="M14 96H15V97H14Z" /><path d="M113 96H114V97H113Z" /><path d="M31 113H32V114H31Z" /><path d="M96 113H97V114H96Z" /><path d="M55 5H56V6H55Z" /><path d="M72 5H73V6H72Z" /><path d="M5 55H6V56H5Z" /><path d="M122 55H123V56H122Z" /><path d="M5 72H6V73H5Z" /><path d="M122 72H123V73H122Z" /><path d="M55 122H56V123H55Z" /><path d="M72 122H73V123H72Z" /><path d="M74 25H75V26H74Z" /><path d="M51 34H52V35H51Z" /><path d="M76 34H78V35H76Z" /><path d="M74 28H75V29H74Z" /><path d="M63 34H64V35H63Z" /><path d="M19 92H20V93H19Z" /><path d="M58 25H59V26H58Z" /><path d="M56 41H57V42H56Z" /><path d="M63 41H64V42H63Z" /><path d="M8 43H9V44H8Z" /><path d="M8 84H9V85H8Z" /><path d="M60 44V45H61V43H60Z" /><path d="M70 46H71V47H70Z" /><path d="M67 47H69V48H67Z" /><path d="M72 74H73V75H71V74Z" /><path d="M74 82H75V83H74Z" /><path d="M69 39H71V40H69Z" /><path d="M73 78H74V79H73Z" /><path d="M56 31H57V32H56Z" /><path d="M60 34V35H61V33H60Z" /><path d="M62 38H63V39H62Z" /><path d="M70 33H71V36H70V34Z" /><path d="M68 77H69V78H68Z" /><path d="M46 97H47V98H46Z" /><path d="M66 84H67V85H66Z" /><path d="M64 47H65V48H64Z" /><path d="M66 31H67V32H66Z" /><path d="M88 97H89V98H88Z" /></g><g fill="rgb(138,41,22)" stroke="none"><path d="M40 9H41V10H40Z" /><path d="M87 9H88V10H87Z" /><path d="M34 12H35V13H34Z" /><path d="M93 12H94V13H93Z" /><path d="M12 34H13V35H12Z" /><path d="M115 34H116V35H115Z" /><path d="M118 40H119V41H118Z" /><path d="M118 87H119V88H118Z" /><path d="M12 93H13V94H12Z" /><path d="M115 93H116V94H115Z" /><path d="M34 115H35V116H34Z" /><path d="M93 115H94V116H93Z" /><path d="M40 118H41V119H40Z" /><path d="M87 118H88V119H87Z" /><path d="M22 21H23V22H22Z" /><path d="M105 21H106V22H105Z" /><path d="M21 22H22V23H21Z" /><path d="M106 22H107V23H106Z" /><path d="M21 105H22V106H21Z" /><path d="M106 105H107V106H106Z" /><path d="M22 106H23V107H22Z" /><path d="M105 106H106V107H105Z" /><path d="M49 6H50V7H49Z" /><path d="M78 6H79V7H78Z" /><path d="M6 49H7V50H6Z" /><path d="M121 49H122V50H121Z" /><path d="M6 78H7V79H6Z" /><path d="M121 78H122V79H121Z" /><path d="M49 121H50V122H49Z" /><path d="M78 121H79V122H78Z" /><path d="M28 16H29V17H28Z" /><path d="M99 16H100V17H99Z" /><path d="M16 28H17V29H16Z" /><path d="M111 28H112V29H111Z" /><path d="M16 99H17V100H16Z" /><path d="M111 99H112V100H111Z" /><path d="M28 111H29V112H28Z" /><path d="M99 111H100V112H99Z" /><path d="M53 5H55V6H53Z" /><path d="M74 5H75V6H73V5Z" /><path d="M5 53H6V55H5V54Z" /><path d="M122 53H123V55H122V54Z" /><path d="M5 74V75H6V73H5Z" /><path d="M122 74V75H123V73H122Z" /><path d="M53 122H55V123H53Z" /><path d="M74 122H75V123H73V122Z" /><path d="M9 40H10V41H9Z" /><path d="M9 87H10V88H9Z" /></g><g fill="rgb(88,26,14)" stroke="none"><path d="M32 13H33V14H32Z" /><path d="M95 13H96V14H95Z" /><path d="M24 19H25V20H24Z" /><path d="M103 19H104V20H103Z" /><path d="M19 24H20V25H19Z" /><path d="M108 24H109V25H108Z" /><path d="M13 32H14V33H13Z" /><path d="M114 32H115V33H114Z" /><path d="M13 95H14V96H13Z" /><path d="M114 95H115V96H114Z" /><path d="M19 103H20V104H19Z" /><path d="M108 103H109V104H108Z" /><path d="M24 108H25V109H24Z" /><path d="M103 108H104V109H103Z" /><path d="M32 114H33V115H32Z" /><path d="M95 114H96V115H95Z" /><path d="M42 8H43V9H42Z" /><path d="M85 8H86V9H85Z" /><path d="M119 42H120V43H119Z" /><path d="M4 63V68H5V60H4V62Z" /><path d="M123 63V68H124V60H123V62Z" /><path d="M119 85H120V86H119Z" /><path d="M42 119H43V120H42Z" /><path d="M85 119H86V120H85Z" /><path d="M64 123H68V124H60V123H63Z" /><path d="M29 15H30V16H29Z" /><path d="M98 15H99V16H98Z" /><path d="M15 29H16V30H15Z" /><path d="M112 29H113V30H112Z" /><path d="M6 48H7V49H6Z" /><path d="M6 79H7V80H6Z" /><path d="M15 98H16V99H15Z" /><path d="M112 98H113V99H112Z" /><path d="M29 112H30V113H29Z" /><path d="M98 112H99V113H98Z" /><path d="M45 7H46V8H45Z" /><path d="M82 7H83V8H82Z" /><path d="M104 20H105V21H104Z" /><path d="M107 23H108V24H107Z" /><path d="M7 45H8V46H7Z" /><path d="M7 82H8V83H7Z" /><path d="M20 104H21V105H20Z" /><path d="M107 104H108V105H107Z" /><path d="M104 107H105V108H104Z" /><path d="M45 120H46V121H45Z" /><path d="M62 4H68V5H60V4H61Z" /><path d="M48 6H49V7H48Z" /><path d="M79 6H80V7H79Z" /><path d="M121 48H122V49H121Z" /><path d="M121 79H122V80H121Z" /><path d="M48 121H49V122H48Z" /><path d="M79 121H80V122H79Z" /><path d="M102 18H103V19H102Z" /><path d="M18 25H19V26H18Z" /><path d="M109 25H110V26H109Z" /><path d="M18 102H19V103H18Z" /><path d="M109 102H110V103H109Z" /><path d="M102 109H103V110H102Z" /><path d="M52 5H53V6H52Z" /><path d="M75 5H76V6H75Z" /><path d="M122 52H123V53H122Z" /><path d="M122 75H123V76H122Z" /><path d="M52 122H53V123H52Z" /><path d="M75 122H76V123H75Z" /><path d="M51 44H52V45H51Z" /><path d="M76 44H78V45H76Z" /><path d="M66 41H67V42H66Z" /><path d="M57 43H58V46H57V44Z" /><path d="M71 51H72V52H71Z" /><path d="M120 45H121V46H120Z" /><path d="M120 82H121V83H120Z" /><path d="M82 120H83V121H82Z" /><path d="M23 20H24V21H23Z" /><path d="M20 23H21V24H20Z" /><path d="M23 107H24V108H23Z" /><path d="M8 42H9V43H8Z" /><path d="M8 85H9V86H8Z" /><path d="M5 52H6V53H5Z" /><path d="M5 75H6V76H5Z" /><path d="M57 33H58V35H57V34Z" /><path d="M68 86H69V87H68Z" /><path d="M70 81H71V82H70Z" /><path d="M53 50H54V51H53Z" /><path d="M75 52H76V53H75Z" /><path d="M67 40H68V41H67Z" /><path d="M70 43H71V44H70Z" /><path d="M60 39H61V40H59V39Z" /><path d="M77 28H78V29H77Z" /><path d="M72 76H73V77H72Z" /></g><g fill="rgb(255,255,255)" stroke="none"><path d="M61 14h6v1H61ZM60 15h2v1H60ZM66 15h2v1H66ZM59 16h2v1H59ZM67 16h2v1H67ZM59 17h2v1H59ZM67 17h2v1H67ZM59 18h2v1H59ZM67 18h2v1H67ZM59 19h10v1H59ZM54 20h19v1H54ZM51 21h6v1H51ZM71 21h6v1H71ZM48 22h5v1H48ZM75 22h5v1H75ZM46 23h4v1H46ZM78 23h4v1H78ZM44 24h3v1H44ZM80 24h4v1H80ZM42 25h3v1H42ZM83 25h2v1H83ZM41 26h3v1H41ZM84 26h3v1H84ZM40 27h2v1H40ZM86 27h2v1H86ZM38 28h3v1H38ZM87 28h3v1H87ZM37 29h2v1H37ZM89 29h2v1H89ZM36 30h2v1H36ZM90 30h2v1H90ZM35 31h2v1H35ZM91 31h2v1H91ZM34 32h2v1H34ZM92 32h2v1H92ZM33 33h2v1H33ZM93 33h2v1H93ZM32 34h2v1H32ZM94 34h2v1H94ZM31 35h2v1H31ZM95 35h1v1H95ZM31 36h1v1H31ZM95 36h2v1H95ZM30 37h2v1H30ZM96 37h2v1H96ZM29 38h2v1H29ZM97 38h2v1H97ZM29 39h1v1H29ZM98 39h1v1H98ZM28 40h2v1H28ZM98 40h2v1H98ZM28 41h1v1H28ZM99 41h1v1H99ZM27 42h2v1H27ZM99 42h2v1H99ZM27 43h1v1H27ZM100 43h1v1H100ZM26 44h2v1H26ZM100 44h2v1H100ZM26 45h1v1H26ZM101 45h1v1H101ZM25 46h2v1H25ZM101 46h2v1H101ZM25 47h2v1H25ZM101 47h2v1H101ZM25 48h1v1H25ZM102 48h1v1H102ZM24 49h2v1H24ZM102 49h1v1H102ZM24 50h2v1H24ZM102 50h2v1H102ZM24 51h1v1H24ZM102 51h2v1H102ZM24 52h1v1H24ZM103 52h1v1H103ZM24 53h1v1H24ZM103 53h1v1H103ZM23 54h2v1H23ZM103 54h2v1H103ZM23 55h2v1H23ZM103 55h2v1H103ZM23 56h2v1H23ZM103 56h2v1H103ZM23 57h2v1H23ZM103 57h2v1H103ZM23 58h2v1H23ZM103 58h2v1H103ZM23 59h2v1H23ZM103 59h2v1H103ZM23 60h2v1H23ZM103 60h2v1H103ZM22 61h84v1H22ZM21 62h86v1H21ZM20 63h2v1H20ZM106 63h2v1H106ZM20 64h2v1H20ZM106 64h2v1H106ZM21 65h86v1H21ZM22 66h84v1H22ZM29 67h1v1H29ZM98 67h1v1H98ZM29 68h1v1H29ZM98 68h1v1H98ZM29 69h2v1H29ZM97 69h2v1H97ZM29 70h2v1H29ZM97 70h2v1H97ZM30 71h68v1H30ZM32 72h64v1H32ZM63 13h2v1H63ZM73 20h1v1H73ZM57 21h1v1H57ZM70 21h1v1H70ZM45 25h1v1H45ZM85 25h1v1H85ZM39 27h1v1H39ZM96 35h1v1H96ZM32 36h1v1H32ZM97 39h1v1H97ZM100 45h1v1H100ZM103 49h1v1H103ZM23 53h1v1H23ZM21 61h1v1H21ZM20 62h1v1H20ZM20 65h1v1H20ZM26 43h1v1H26ZM94 35h1v1H94ZM27 45h1v1H27ZM97 67h1v1H97ZM39 29h1v1H39ZM101 48h1v1H101ZM107 65h1v1H107ZM96 70h1v1H96ZM47 24h1v1H47ZM82 25h1v1H82ZM25 51h1v1H25ZM60 14h1v1H60ZM98 41h1v1H98ZM28 67h1v1H28ZM31 70h1v1H31ZM69 19h1v1H69ZM77 21h1v1H77ZM101 43h1v1H101ZM30 67h1v1H30ZM67 14h1v1H67ZM50 21h1v1H50ZM53 22h1v1H53ZM58 19h1v1H58ZM74 22h1v1H74ZM30 36h1v1H30ZM100 41h1v1H100ZM99 43h1v1H99ZM102 52h1v1H102ZM97 68h1v1H97ZM68 15h1v1H68ZM38 30h1v1H38ZM93 34h1v1H93ZM28 43h1v1H28ZM25 52h1v1H25ZM28 68h1v1H28ZM65 15h1v1H65ZM77 23h1v1H77ZM85 27h1v1H85ZM97 36h1v1H97ZM99 67h1v1H99ZM88 27h1v1H88ZM106 61h1v1H106ZM21 66h1v1H21ZM88 29h1v1H88ZM30 39h1v1H30ZM107 62h1v1H107ZM29 41h1v1H29ZM65 13h1v1H65ZM62 15h1v1H62ZM58 21h1v1H58ZM50 23h1v1H50ZM42 27h1v1H42ZM40 26h1v1H40ZM30 68h1v1H30ZM74 20h1v1H74ZM45 23h1v1H45ZM90 31h1v1H90ZM34 34h1v1H34ZM27 41h1v1H27ZM104 53h1v1H104ZM106 66h1v1H106ZM59 15h1v1H59ZM28 39h1v1H28ZM26 48h1v1H26ZM96 72h1v1H96ZM99 39h1v1H99ZM24 48h1v1H24ZM23 52h1v1H23ZM62 13h1v1H62ZM69 21h1v1H69ZM82 23h1v1H82ZM34 31h1v1H34ZM87 26h1v1H87ZM96 38h1v1H96ZM89 30h1v1H89ZM25 45h1v1H25ZM53 20h1v1H53ZM33 35h1v1H33ZM31 72h1v1H31ZM35 30h1v1H35ZM92 33h1v1H92Z" /><path d="M30 55H58V57H30V56Z" /><path d="M61 55H63V57H60V55Z" /><path d="M21 75H25V76H26V78H24V76H21V80H24V81H26V82H27V85H26V86H25V87H21V86H20V85H19V84H21V85H22V86H24V85H25V83H24V82H22V81H20V80H19V76H20V75Z" /><path d="M33 75H37V76H39V78H40V79H38V78H37V77H32V78H31V84H32V85H37V84H38V83H40V84H39V85H38V86H37V87H32V86H31V85H30V84H29V78H30V77H31V76H32V75Z" /><path d="M46 75h2v1H46ZM46 76h3v1H46ZM46 77h1v1H46ZM48 77h1v1H48ZM48 78h1v1H48ZM45 78h1v1H45ZM45 79h1v1H45ZM44 80h2v1H44ZM44 81h1v1H44ZM44 82h1v1H44ZM43 83h7v1H43ZM50 82h1v1H50ZM50 83h1v1H50ZM43 84h1v1H43ZM50 84h2v1H50ZM43 85h1v1H43ZM51 85h1v1H51ZM49 79h1v1H49ZM49 80h1v1H49ZM49 81h2v1H49ZM42 85h1v1H42ZM42 86h1v1H42ZM51 86h1v1H51ZM48 79h1v1H48ZM43 86h1v1H43ZM45 77h1v1H45ZM49 82h1v1H49ZM52 86h1v1H52ZM47 77h1v1H47ZM50 85h1v1H50ZM46 78h1v1H46ZM43 82h1v1H43ZM48 75h1v1H48ZM49 78h1v1H49Z" /><path d="M55 75H57V76H58V78H59V79H60V81H61V82H62V83H63V75H65V87H63V86H62V85H61V83H60V82H59V80H58V79H57V87H55V76Z" /><path d="M80 75H86V76H82V77H81V80H86V81H82V82H81V85H82V86H86V87H80V76Z" /><path d="M92 75h2v1H92ZM92 76h3v1H92ZM92 77h1v1H92ZM94 77h1v1H94ZM94 78h1v1H94ZM95 79h1v1H95ZM95 80h1v1H95ZM95 81h2v1H95ZM96 82h1v1H96ZM90 81h1v1H90ZM90 82h1v1H90ZM89 83h8v1H89ZM89 84h1v1H89ZM96 84h2v1H96ZM89 85h1v1H89ZM97 85h1v1H97ZM95 78h1v1H95ZM88 86h2v1H88ZM98 86h1v1H98ZM97 86h1v1H97ZM94 75h1v1H94ZM91 78h1v1H91ZM91 79h1v1H91ZM91 80h1v1H91ZM92 78h1v1H92ZM95 82h1v1H95ZM90 80h1v1H90ZM97 83h1v1H97ZM93 77h1v1H93ZM90 84h1v1H90ZM91 81h1v1H91ZM94 79h1v1H94ZM91 77h1v1H91ZM88 85h1v1H88Z" /><path d="M100 75H109V76H106V77H105V87H104V77H103V76H100Z" /></g><g fill="rgb(255,186,173)" stroke="none"><path d="M65 21H67V22H61V21H64Z" /><path d="M26 60H103V61H25V60Z" /><path d="M22 64V65H23V63H22Z" /><path d="M23 67H28V68H23Z" /><path d="M31 67H97V68H31Z" /><path d="M100 67H105V68H100Z" /><path d="M34 70H96V71H32V70H33Z" /><path d="M97 72H98V73H97Z" /><path d="M100 40H101V41H100Z" /><path d="M30 72H31V73H30Z" /><path d="M31 75H32V76H31Z" /><path d="M46 79H47V80H46Z" /><path d="M45 84H50V85H45Z" /><path d="M91 84H96V85H91Z" /><path d="M105 77H106V87H105V78Z" /><path d="M37 75H38V76H37Z" /><path d="M81 77H82V79H81V78Z" /><path d="M92 79H93V80H92Z" /><path d="M81 82H82V85H81V83Z" /><path d="M40 95H41V96H40Z" /><path d="M75 20H76V21H75Z" /><path d="M26 42H27V43H26Z" /><path d="M71 19H72V20H71Z" /><path d="M98 42H99V43H98Z" /><path d="M105 58H106V60H105V59Z" /><path d="M50 86H51V87H50Z" /><path d="M56 19H57V20H56Z" /><path d="M25 54H26V55H25Z" /><path d="M43 81H44V82H43Z" /><path d="M25 86H26V87H25Z" /><path d="M66 13H67V14H66Z" /><path d="M69 17H70V18H69Z" /><path d="M22 59V60H23V57H22V58Z" /><path d="M18 77H19V79H18V78Z" /><path d="M25 44H26V45H25Z" /><path d="M37 78H38V79H37Z" /><path d="M76 23H77V24H76Z" /><path d="M86 25H87V26H86Z" /><path d="M49 77H50V78H49Z" /><path d="M103 47H104V48H103Z" /><path d="M94 80H95V81H94Z" /><path d="M62 82H63V83H62Z" /><path d="M90 85H91V86H90Z" /><path d="M30 40H31V41H30Z" /><path d="M19 80H20V81H19Z" /><path d="M52 85H53V86H52Z" /><path d="M105 63H106V65H105V64Z" /><path d="M37 83H38V84H37Z" /><path d="M24 83H25V84H24Z" /><path d="M36 77H37V78H36Z" /><path d="M61 85H62V86H61Z" /><path d="M97 82H98V83H97Z" /><path d="M26 85H27V86H26Z" /><path d="M24 47H25V48H24Z" /><path d="M91 76H92V77H91Z" /><path d="M36 84H37V85H36Z" /><path d="M34 96H36V97H34Z" /><path d="M37 86H38V87H37Z" /><path d="M22 76H23V77H22Z" /><path d="M86 75H87V76H86Z" /><path d="M86 86H87V87H86Z" /><path d="M88 84H89V85H88Z" /><path d="M52 20H53V21H52Z" /><path d="M104 51H105V52H104Z" /><path d="M41 25H42V26H41Z" /><path d="M89 27H90V28H89Z" /><path d="M102 55V56H103V54H102Z" /><path d="M51 23H52V24H51Z" /><path d="M24 80H25V81H24Z" /><path d="M95 37H96V38H95Z" /><path d="M39 84H40V85H39Z" /><path d="M58 16H59V17H58Z" /><path d="M19 63H20V65H19V64Z" /><path d="M48 80H49V81H48Z" /><path d="M21 81H22V82H21Z" /><path d="M72 22H73V23H72Z" /><path d="M32 77H33V78H32Z" /><path d="M29 77H30V78H29Z" /><path d="M83 96V97H84V95H83Z" /><path d="M78 96H79V97H78Z" /><path d="M77 95H78V96H77Z" /><path d="M78 21H79V22H78Z" /><path d="M49 21H50V22H49Z" /><path d="M32 37H33V38H32Z" /><path d="M101 42H102V43H101Z" /><path d="M28 44H29V45H28Z" /><path d="M27 40H28V41H27Z" /><path d="M99 44H100V45H99Z" /><path d="M98 71H99V72H98Z" /><path d="M38 27H39V28H38Z" /><path d="M87 29H88V30H87Z" /><path d="M96 34H97V35H96Z" /><path d="M31 34H32V35H31Z" /><path d="M20 61H21V62H20Z" /></g><g fill="rgb(8,32,50)" stroke="none"><path d="M54 26H58V28H53V30H52V34H51V28H52V27H53V26Z" /><path d="M72 26H76V27H77V29H78V34H76V29H75V28H72V27H71V26Z" /><path d="M61 32H62V37H57V35H58V36H61V33H57V32H60Z" /><path d="M71 32h1v1H71ZM71 33h1v1H71ZM71 34h1v1H71ZM71 35h1v1H71ZM67 36h5v1H67ZM67 32h4v1H67ZM67 33h1v1H67ZM67 34h1v1H67ZM67 35h1v1H67Z" /><path d="M68 39H69V40H68Z" /><path d="M71 39H72V40H71Z" /><path d="M61 42H62V47H57V46H61V43H57V42H60Z" /><path d="M70 42V43H72V42H71V41H70Z" /><path d="M65 43V41H64V40H65V39H66V40H67V41H66V44H65V47H64V43Z" /><path d="M51 45H52V49H53V51H58V53H53V52H52V51H51V46Z" /><path d="M76 45H78V50H77V52H75V53H71V52H72V51H75V50H76V46Z" /><path d="M67 46V47H69V46H68V45H67Z" /><path d="M71 46H72V47H71Z" /><path d="M71 75h3v1H71ZM74 76h1v1H74ZM74 77h1v1H74ZM73 76h1v1H73ZM70 76h1v1H70ZM69 77h1v1H69ZM70 78h1v1H70ZM70 79h1v1H70ZM69 80h3v1H69ZM69 78h1v1H69ZM70 77h1v1H70ZM71 79h1v1H71ZM68 81h1v1H68ZM72 81h1v1H72ZM73 83h1v1H73ZM73 82h1v1H73ZM74 84h1v1H74ZM73 84h1v1H73ZM72 85h1v1H72ZM72 84h1v1H72ZM71 85h1v1H71ZM72 82h1v1H72ZM68 85h1v1H68ZM69 86h2v1H69ZM69 85h1v1H69ZM71 86h1v1H71ZM72 83h1v1H72ZM67 82h1v1H67ZM67 83h1v1H67ZM67 84h1v1H67ZM67 85h1v1H67ZM68 84h1v1H68ZM68 82h1v1H68ZM68 80h1v1H68ZM67 81h1v1H67ZM69 81h1v1H69ZM70 85h1v1H70ZM75 85h1v1H75ZM76 86h1v1H76ZM75 86h1v1H75ZM74 85h1v1H74ZM75 84h1v1H75ZM71 81h1v1H71ZM74 83h1v1H74ZM70 75h1v1H70ZM69 76h1v1H69ZM71 76h1v1H71Z" /><path d="M20 90H108V92H20V91Z" /><path d="M64 35H65V38H64V36Z" /><path d="M69 43H70V44H68V43Z" /><path d="M64 32H65V33H64Z" /><path d="M62 39H63V40H62Z" /><path d="M57 39H58V40H57Z" /></g><g fill="rgb(255,96,65)" stroke="none"><path d="M92 29H93V30H92Z" /><path d="M30 41H31V42H30Z" /><path d="M94 74H95V75H92V74H93Z" /><path d="M80 87H87V88H79V87Z" /><path d="M104 87H106V88H103V87Z" /><path d="M23 95H24V96H23Z" /><path d="M64 12H65V13H63V12Z" /><path d="M65 16H66V17H65Z" /><path d="M74 23H75V24H74Z" /><path d="M77 24H78V25H77Z" /><path d="M96 73H97V74H96Z" /><path d="M24 74H25V75H24Z" /><path d="M50 78H51V79H50Z" /><path d="M47 79H48V80H47Z" /><path d="M40 82H41V84H40V83Z" /><path d="M42 87H44V88H42Z" /><path d="M51 87H53V88H51Z" /><path d="M88 87H90V88H88Z" /><path d="M97 87H99V88H97Z" /><path d="M65 96H66V97H65Z" /><path d="M36 28H37V29H36Z" /><path d="M95 32H96V33H95Z" /><path d="M95 38H96V39H95Z" /><path d="M31 73H32V74H31Z" /><path d="M36 74H37V75H36Z" /><path d="M25 78H27V79H24V78Z" /><path d="M95 75H96V76H95Z" /><path d="M82 79H86V80H82Z" /><path d="M41 97H42V98H41Z" /><path d="M62 16H63V17H62Z" /><path d="M50 24H51V25H50Z" /><path d="M32 38H33V39H32Z" /><path d="M32 74H33V75H32Z" /><path d="M62 87H65V88H62Z" /><path d="M92 94H93V98H92V95Z" /><path d="M94 95V97H95V94H94Z" /><path d="M58 15H59V16H58Z" /><path d="M57 22H58V23H57Z" /><path d="M35 29H36V30H35Z" /><path d="M93 30H94V31H93Z" /><path d="M101 41H102V42H101Z" /><path d="M28 45H29V46H28Z" /><path d="M39 76H40V77H39Z" /><path d="M90 32H91V33H90Z" /><path d="M57 54H58V55H57Z" /><path d="M63 57H64V58H63Z" /><path d="M35 87H36V88H35Z" /><path d="M42 94H43V95H42Z" /><path d="M34 84H35V85H34Z" /><path d="M21 87H22V88H21Z" /><path d="M34 94H36V95H34Z" /><path d="M98 95H99V96H98Z" /><path d="M23 79H24V80H23Z" /><path d="M38 86H39V87H38Z" /><path d="M24 87H25V88H24Z" /><path d="M53 97H54V98H53Z" /><path d="M85 28H86V29H85Z" /><path d="M33 31H34V32H33Z" /><path d="M91 33H92V34H91Z" /><path d="M51 81H52V82H51Z" /><path d="M63 95H64V96H63Z" /><path d="M31 81V82H32V80H31Z" /><path d="M99 86H100V87H99Z" /><path d="M55 87H57V88H55Z" /><path d="M46 74H49V75H46Z" /><path d="M50 20H51V21H50Z" /><path d="M63 54H64V55H63Z" /><path d="M18 85H19V86H18Z" /><path d="M70 97H71V98H70Z" /><path d="M91 28H92V29H91Z" /><path d="M101 52H102V53H101Z" /><path d="M23 77H24V78H23Z" /><path d="M20 74H21V75H20Z" /><path d="M35 77H36V78H35Z" /><path d="M39 85H40V86H39Z" /><path d="M69 15H70V16H69Z" /><path d="M87 25H88V26H87Z" /><path d="M62 74H63V75H62Z" /><path d="M33 97H37V98H33Z" /><path d="M37 32H38V33H37Z" /><path d="M22 53H23V54H22Z" /><path d="M58 56V57H59V55H58Z" /><path d="M19 86H20V87H19Z" /><path d="M32 32H33V33H32Z" /><path d="M100 48H101V49H100Z" /><path d="M33 77H34V78H33Z" /><path d="M58 95H59V96H58Z" /><path d="M38 75H39V76H38Z" /><path d="M73 96V97H74V95H73Z" /><path d="M38 79H40V80H38Z" /><path d="M100 95H101V96H100Z" /><path d="M27 97H28V98H27Z" /><path d="M102 43H103V44H102Z" /><path d="M23 97H24V98H23Z" /><path d="M109 75H110V76H109Z" /><path d="M90 77H91V78H90Z" /><path d="M57 80H58V81H57Z" /><path d="M37 82H38V83H37Z" /><path d="M71 95H72V96H71Z" /><path d="M94 31H95V32H94Z" /><path d="M27 39H28V40H27Z" /><path d="M25 43H26V44H25Z" /><path d="M29 94H30V95H29Z" /><path d="M50 96V97H51V95H50Z" /><path d="M100 39H101V40H100Z" /><path d="M54 74H55V75H54Z" /><path d="M21 97V98H22V96H21Z" /><path d="M77 20H78V21H77Z" /><path d="M105 53H106V54H105Z" /><path d="M96 78H97V79H96Z" /><path d="M44 86H45V87H44Z" /><path d="M33 87H34V88H33Z" /><path d="M42 28H43V29H42Z" /><path d="M36 33H37V34H36Z" /><path d="M44 77H45V78H44Z" /><path d="M53 23H54V24H53Z" /><path d="M27 48H28V49H27Z" /><path d="M28 78H29V79H28Z" /><path d="M21 94H22V95H21Z" /><path d="M99 76H100V77H99Z" /><path d="M60 79H61V80H60Z" /><path d="M84 96V97H85V95H84Z" /><path d="M34 30H35V31H34Z" /><path d="M79 74H80V75H79Z" /><path d="M72 94H73V95H72Z" /><path d="M27 83H28V84H27Z" /><path d="M41 85H42V86H41Z" /><path d="M21 78H22V79H21Z" /><path d="M57 94H58V95H57Z" /><path d="M25 59H26V60H25Z" /><path d="M99 94H100V95H99Z" /><path d="M35 34H36V35H35Z" /><path d="M98 36H99V37H98Z" /><path d="M70 22H71V23H70Z" /><path d="M61 17H62V18H61Z" /><path d="M108 65H109V66H108Z" /><path d="M40 25H41V26H40Z" /><path d="M86 74H87V75H86Z" /><path d="M89 80H90V81H89Z" /><path d="M28 95H29V96H28Z" /><path d="M59 94H60V95H59Z" /><path d="M51 94H52V95H51Z" /><path d="M97 41H98V42H97Z" /><path d="M29 43H30V44H29Z" /><path d="M98 43H99V44H98Z" /></g><g fill="rgb(217,69,42)" stroke="none"><path d="M72 32H73V37H72V33Z" /><path d="M72 39H73V40H72Z" /><path d="M68 40H69V41H68Z" /><path d="M72 42H73V43H72Z" /><path d="M76 52H77V53H76Z" /><path d="M75 83H76V84H75Z" /><path d="M41 9H42V10H41Z" /><path d="M86 9H87V10H86Z" /><path d="M30 15H31V16H30Z" /><path d="M97 15H98V16H97Z" /><path d="M15 30H16V31H15Z" /><path d="M112 30H113V31H112Z" /><path d="M9 41H10V42H9Z" /><path d="M118 41H119V42H118Z" /><path d="M9 86H10V87H9Z" /><path d="M118 86H119V87H118Z" /><path d="M15 97H16V98H15Z" /><path d="M112 97H113V98H112Z" /><path d="M30 112H31V113H30Z" /><path d="M97 112H98V113H97Z" /><path d="M41 118H42V119H41Z" /><path d="M86 118H87V119H86Z" /><path d="M75 31V34H76V30H75Z" /><path d="M70 38H71V39H69V38Z" /><path d="M56 40H58V41H56Z" /><path d="M68 45H69V46H68Z" /><path d="M75 45H76V49H75V46Z" /><path d="M50 6H51V7H50Z" /><path d="M77 6H78V7H77Z" /><path d="M6 50H7V51H6Z" /><path d="M121 50H122V51H121Z" /><path d="M6 77H7V78H6Z" /><path d="M121 77H122V78H121Z" /><path d="M50 121H51V122H50Z" /><path d="M77 121H78V122H77Z" /><path d="M33 13H34V14H33Z" /><path d="M94 13H95V14H94Z" /><path d="M13 33H14V34H13Z" /><path d="M114 33H115V34H114Z" /><path d="M13 94H14V95H13Z" /><path d="M114 94H115V95H114Z" /><path d="M33 114H34V115H33Z" /><path d="M94 114H95V115H94Z" /><path d="M56 5H57V6H56Z" /><path d="M71 5H72V6H71Z" /><path d="M5 56H6V57H5Z" /><path d="M122 56H123V57H122Z" /><path d="M5 71H6V72H5Z" /><path d="M122 71H123V72H122Z" /><path d="M56 122H57V123H56Z" /><path d="M71 122H72V123H71Z" /><path d="M78 31V34H79V29H78V30Z" /><path d="M60 38H61V39H59V38Z" /><path d="M78 45V50H79V44H78Z" /><path d="M59 40H61V41H59Z" /><path d="M62 42H63V47H62V43Z" /><path d="M68 78H69V79H68Z" /><path d="M62 32H63V37H62V33Z" /><path d="M74 86H75V87H74Z" /><path d="M58 35H60V36H58Z" /><path d="M68 35H70V36H68Z" /><path d="M50 28H51V29H50Z" /><path d="M56 38V39H57V37H56Z" /><path d="M67 39H68V40H67Z" /><path d="M72 46H73V47H72Z" /><path d="M19 89H20V90H19Z" /><path d="M26 18H27V19H26Z" /><path d="M101 18H102V19H101Z" /><path d="M18 26H19V27H18Z" /><path d="M26 109H27V110H26Z" /><path d="M69 47H71V48H69Z" /><path d="M71 77H72V79H71V78Z" /><path d="M77 87H78V88H76V87Z" /><path d="M109 26H110V27H109Z" /><path d="M18 101H19V102H18Z" /><path d="M109 101H110V102H109Z" /><path d="M101 109H102V110H101Z" /><path d="M62 40H63V41H62Z" /><path d="M63 47H64V48H63Z" /><path d="M69 84H70V85H69Z" /><path d="M71 45H72V46H71Z" /><path d="M68 76H69V77H68Z" /><path d="M56 47H57V48H56Z" /><path d="M108 90H109V92H108V91Z" /><path d="M74 53H75V54H74Z" /><path d="M70 87H72V88H69V87Z" /><path d="M66 38V39H67V37H66Z" /><path d="M77 51H78V52H77Z" /><path d="M71 84H72V85H71Z" /><path d="M63 31H64V32H63Z" /><path d="M58 53H59V54H58Z" /><path d="M76 26H77V27H76Z" /><path d="M67 80H68V81H67Z" /><path d="M77 27H78V28H77Z" /><path d="M66 47H67V48H66Z" /><path d="M71 40H72V41H71Z" /><path d="M50 50H51V51H50Z" /><path d="M53 25H54V26H53Z" /><path d="M67 86H68V87H67Z" /><path d="M71 82H72V83H71Z" /><path d="M54 50H55V51H54Z" /><path d="M67 43H68V44H67Z" /><path d="M73 74H74V75H73Z" /><path d="M52 34H53V35H52Z" /><path d="M50 34H51V35H50Z" /></g><g fill="rgb(116,51,46)" stroke="none"><path d="M64 34H65V35H64Z" /><path d="M63 39V40H64V39H65V38H63Z" /><path d="M19 90H20V92H19V91Z" /><path d="M20 92H108V93H20Z" /><path d="M50 31V34H51V29H50V30Z" /><path d="M50 45V50H51V44H50Z" /><path d="M52 31V34H53V30H52Z" /><path d="M52 45H53V49H52V46Z" /><path d="M56 42H57V47H56V43Z" /><path d="M74 78H75V79H74Z" /><path d="M66 32H67V37H66V33Z" /><path d="M56 32H57V37H56V33Z" /><path d="M77 50H78V51H77Z" /><path d="M75 77H76V78H75Z" /><path d="M72 80H73V81H72Z" /><path d="M53 28H54V29H53Z" /><path d="M69 41V43H70V41H71V40H69Z" /><path d="M56 25H58V26H55V25Z" /><path d="M72 25H73V26H72Z" /><path d="M66 45H67V47H66V46Z" /><path d="M73 81H74V82H73Z" /><path d="M68 44H70V45H67V44Z" /><path d="M73 77H74V78H73Z" /><path d="M69 79H70V80H69Z" /><path d="M76 85H77V86H76Z" /><path d="M72 86H73V87H72Z" /><path d="M68 83H69V84H68Z" /><path d="M52 26H53V27H52Z" /><path d="M67 41H68V42H67Z" /><path d="M64 41H65V42H64Z" /><path d="M56 39H57V40H56Z" /><path d="M71 27H72V28H71Z" /><path d="M51 27H52V28H51Z" /><path d="M74 75H75V76H74Z" /></g><g fill="rgb(255,122,96)" stroke="none"><path d="M103 46H104V47H103Z" /><path d="M23 49H24V50H23Z" /><path d="M23 63H105V65H23V64Z" /><path d="M97 81H98V82H97Z" /><path d="M99 45H100V46H99Z" /><path d="M25 58V59H26V57H25Z" /><path d="M55 74H57V75H55Z" /><path d="M63 74H65V75H63Z" /><path d="M80 74H86V75H80Z" /><path d="M100 74H109V75H100Z" /><path d="M62 18H66V19H62Z" /><path d="M79 21H80V22H79Z" /><path d="M80 25H81V26H80Z" /><path d="M28 79H29V80H28Z" /><path d="M42 97H43V98H42Z" /><path d="M54 19H55V20H54Z" /><path d="M29 36H30V37H29Z" /><path d="M104 49H105V50H104Z" /><path d="M26 51H27V52H26Z" /><path d="M108 62H109V63H108Z" /><path d="M25 80H26V81H25Z" /><path d="M35 84H36V85H35Z" /><path d="M53 96V97H54V95H53V94H52V96Z" /><path d="M82 26H83V27H82Z" /><path d="M23 74H24V75H23Z" /><path d="M64 96H65V97H63V96Z" /><path d="M29 97V98H30V96H29Z" /><path d="M77 97V98H78V96H77Z" /><path d="M45 26H46V27H45Z" /><path d="M35 74H36V75H33V74H34Z" /><path d="M78 95V96H79V94H77V95Z" /><path d="M23 96H24V97H23Z" /><path d="M98 97H99V98H98Z" /><path d="M100 97H101V98H100Z" /><path d="M34 35H35V36H34Z" /><path d="M43 80H44V81H43Z" /><path d="M46 80H47V81H46Z" /><path d="M41 95H42V96H41Z" /><path d="M75 23H76V24H75Z" /><path d="M96 39H97V40H96Z" /><path d="M31 69H32V70H31Z" /><path d="M92 80H93V81H92Z" /><path d="M83 94H85V95H83Z" /><path d="M105 54H106V56H105V55Z" /><path d="M21 67H22V68H21Z" /><path d="M20 81H21V82H20Z" /><path d="M33 84H34V85H33Z" /><path d="M102 57H103V60H102V58Z" /><path d="M93 94H94V95H93Z" /><path d="M105 94H107V95H104V94Z" /><path d="M21 74H22V75H21Z" /><path d="M31 82H32V83H31Z" /><path d="M94 82V81H95V83H92V82H93Z" /><path d="M28 94H29V95H28Z" /><path d="M21 60H22V61H21Z" /><path d="M91 75H92V76H91Z" /><path d="M28 82H29V83H28Z" /><path d="M22 95V96H23V94H22Z" /><path d="M19 62H20V63H19Z" /><path d="M88 83H89V84H88Z" /><path d="M59 97H60V98H59Z" /><path d="M42 24H43V25H42Z" /><path d="M88 30H89V31H88Z" /><path d="M60 57H61V58H60Z" /><path d="M21 84H22V85H21Z" /><path d="M40 97H41V98H40Z" /><path d="M57 97H58V98H57Z" /><path d="M84 97H85V98H84Z" /><path d="M105 97H106V98H105Z" /><path d="M60 13H61V14H60Z" /><path d="M22 87H24V88H22Z" /><path d="M34 87H35V88H34Z" /><path d="M46 82H48V83H46Z" /><path d="M66 17H67V18H66Z" /><path d="M67 13H68V14H67Z" /><path d="M58 81H59V82H58Z" /><path d="M56 22H57V23H56Z" /><path d="M24 46H25V47H24Z" /><path d="M71 94H72V95H71Z" /><path d="M60 84H61V85H60Z" /><path d="M73 19H74V20H73Z" /><path d="M38 31H39V32H38Z" /><path d="M26 41H27V42H26Z" /><path d="M52 23H53V24H52Z" /><path d="M72 97H73V98H72Z" /><path d="M40 94H41V95H40Z" /><path d="M64 94H66V96H65V95H64Z" /><path d="M38 82H40V83H38Z" /><path d="M26 81H27V82H26Z" /><path d="M51 97H52V98H51Z" /><path d="M40 78H41V79H40Z" /><path d="M94 97H95V98H94Z" /><path d="M95 73H96V74H95Z" /><path d="M49 76H50V77H49Z" /><path d="M60 54H61V55H60Z" /><path d="M59 56V57H60V55H59Z" /><path d="M57 57H58V58H57Z" /><path d="M58 96H59V97H58Z" /><path d="M106 67H107V68H106Z" /><path d="M99 75H100V76H99Z" /><path d="M90 86H91V87H90Z" /><path d="M30 54H31V55H30Z" /><path d="M52 84H53V85H52Z" /><path d="M58 76H59V77H58Z" /><path d="M48 21H49V22H48Z" /><path d="M88 26H89V27H88Z" /><path d="M92 34H93V35H92Z" /><path d="M93 35H94V36H93Z" /><path d="M22 54H23V55H22Z" /><path d="M71 22H72V23H71Z" /><path d="M47 25H48V26H47Z" /><path d="M101 51H102V52H101Z" /><path d="M39 26H40V27H39Z" /><path d="M62 54H63V55H62Z" /><path d="M68 14H69V15H68Z" /><path d="M32 73H33V74H32Z" /><path d="M31 79H32V80H31Z" /><path d="M85 24H86V25H85Z" /><path d="M18 83H19V84H18Z" /><path d="M31 39H32V40H31Z" /><path d="M89 31H90V32H89Z" /><path d="M39 30H40V31H39Z" /><path d="M106 60H107V61H106Z" /><path d="M19 65H20V66H19Z" /></g><g fill="rgb(255,218,211)" stroke="none"><path d="M28 69H29V70H28Z" /><path d="M79 75H80V87H79V76Z" /><path d="M58 77H59V78H58Z" /><path d="M37 28H38V29H37Z" /><path d="M82 76H86V77H82Z" /><path d="M100 76H103V77H100Z" /><path d="M106 76H109V77H106Z" /><path d="M90 79H91V80H90Z" /><path d="M60 80H61V81H60Z" /><path d="M79 24H80V25H79Z" /><path d="M103 77H104V87H103V78Z" /><path d="M93 31H94V32H93Z" /><path d="M33 32H34V33H33Z" /><path d="M96 80H97V81H96Z" /><path d="M89 82H90V83H89Z" /><path d="M82 85H86V86H82Z" /><path d="M58 17H59V19H58V18Z" /><path d="M60 21H61V22H59V21Z" /><path d="M46 25H47V26H46Z" /><path d="M41 28H42V29H41Z" /><path d="M23 51H24V52H23Z" /><path d="M29 71H30V72H29Z" /><path d="M98 85H99V86H98Z" /><path d="M57 19H58V20H57Z" /><path d="M73 22H74V23H73Z" /><path d="M86 28H87V29H86Z" /><path d="M98 37H99V38H98Z" /><path d="M26 77H27V78H26Z" /><path d="M64 15H65V16H63V15Z" /><path d="M82 81H86V82H82Z" /><path d="M61 16H62V17H61Z" /><path d="M97 40H98V41H97Z" /><path d="M26 49H27V50H26Z" /><path d="M29 37H30V38H29Z" /><path d="M60 83H61V84H60Z" /><path d="M23 85H24V86H22V85Z" /><path d="M35 33H36V34H35Z" /><path d="M102 45H103V46H102Z" /><path d="M99 68H100V70H99V69Z" /><path d="M91 32H92V33H91Z" /><path d="M103 48H104V49H103Z" /><path d="M44 84H45V85H44Z" /><path d="M68 21H69V22H67V21Z" /><path d="M84 24H85V25H84Z" /><path d="M22 60H23V61H22Z" /><path d="M48 24H49V25H48Z" /><path d="M100 46H101V47H100Z" /><path d="M30 76H31V77H30Z" /><path d="M94 32H95V33H94Z" /><path d="M62 86H63V87H62Z" /><path d="M69 18H70V19H69Z" /><path d="M90 28H91V29H90Z" /><path d="M27 46H28V47H27Z" /><path d="M70 19H71V20H70Z" /><path d="M81 25H82V26H81Z" /><path d="M95 33H96V34H95Z" /><path d="M45 82V83H46V81H45Z" /><path d="M30 85H31V86H30Z" /><path d="M81 79H82V80H81Z" /><path d="M20 86H21V87H20Z" /><path d="M101 49H102V50H101Z" /><path d="M91 82H92V83H91Z" /><path d="M63 55H64V57H63V56Z" /><path d="M58 80H59V81H58Z" /><path d="M38 85H39V86H38Z" /><path d="M96 85H97V86H96Z" /><path d="M32 84H33V85H32Z" /><path d="M42 84H43V85H42Z" /><path d="M104 52H105V53H104Z" /><path d="M51 83H52V84H51Z" /><path d="M25 53H26V54H25Z" /><path d="M31 83H32V84H31Z" /><path d="M36 32H37V33H36Z" /><path d="M31 38H32V39H31Z" /><path d="M44 26H45V27H44Z" /><path d="M32 33H33V34H32Z" /><path d="M92 30H93V31H92Z" /><path d="M21 79H22V80H21Z" /><path d="M80 22H81V23H80Z" /><path d="M23 76H24V77H23Z" /><path d="M83 26H84V27H83Z" /><path d="M61 13H62V14H61Z" /><path d="M24 84H25V85H24Z" /><path d="M66 16H67V17H66Z" /><path d="M39 77H40V78H39Z" /><path d="M99 95H100V96H99Z" /><path d="M44 79H45V80H44Z" /><path d="M31 78H32V79H31Z" /><path d="M50 80H51V81H50Z" /><path d="M43 24H44V25H43Z" /><path d="M95 77H96V78H95Z" /><path d="M19 85H20V86H19Z" /><path d="M54 22H55V23H54Z" /><path d="M47 22H48V23H47Z" /><path d="M36 29H37V30H36Z" /><path d="M91 29H92V30H91Z" /><path d="M21 76H22V77H21Z" /><path d="M45 76H46V77H45Z" /><path d="M102 53H103V54H102Z" /><path d="M105 60H106V61H105Z" /><path d="M37 31H38V32H37Z" /></g><g fill="rgb(255,156,137)" stroke="none"><path d="M54 75H55V87H54V76Z" /><path d="M52 97H53V98H52Z" /><path d="M61 18H62V19H61Z" /><path d="M27 47H28V48H27Z" /><path d="M33 73H95V74H33Z" /><path d="M23 50H24V51H23Z" /><path d="M101 50H102V51H101Z" /><path d="M31 57H57V58H30V57Z" /><path d="M61 57H63V58H61Z" /><path d="M20 66H21V67H20Z" /><path d="M96 79H97V80H96Z" /><path d="M76 20H77V21H76Z" /><path d="M31 54H57V55H31Z" /><path d="M61 54H62V55H61Z" /><path d="M99 70H100V71H99Z" /><path d="M62 75H63V82H61V81H62V76Z" /><path d="M41 86H42V87H41Z" /><path d="M27 95H28V97H27V96Z" /><path d="M57 75H58V76H57Z" /><path d="M89 81H90V82H89Z" /><path d="M29 84H30V85H29Z" /><path d="M21 95H22V96H21Z" /><path d="M57 95H58V97H57V96Z" /><path d="M93 96V98H94V95H93Z" /><path d="M44 78H45V79H44Z" /><path d="M44 85H45V86H44Z" /><path d="M72 95H73V97H72V96Z" /><path d="M40 96H42V95H43V97H40Z" /><path d="M105 96V97H106V95H105Z" /><path d="M105 67H106V68H105Z" /><path d="M59 82H60V83H59Z" /><path d="M86 85H87V86H86Z" /><path d="M96 69H97V70H96Z" /><path d="M95 76H96V77H95Z" /><path d="M28 81V82H29V80H28Z" /><path d="M55 19H56V20H55Z" /><path d="M50 79H51V80H50Z" /><path d="M23 82H24V83H23Z" /><path d="M44 23H45V24H44Z" /><path d="M107 66H108V67H107Z" /><path d="M19 83H21V84H19Z" /><path d="M83 97H84V98H83Z" /><path d="M83 23H84V24H83Z" /><path d="M43 27H44V28H43Z" /><path d="M102 56H103V57H102Z" /><path d="M28 70H29V71H28Z" /><path d="M86 76H87V77H86Z" /><path d="M65 97H66V98H64V97Z" /><path d="M69 16H70V17H69Z" /><path d="M108 63H109V65H108V64Z" /><path d="M25 75H26V76H25Z" /><path d="M59 14H60V15H59Z" /><path d="M29 55H30V57H29V56Z" /><path d="M25 56V57H26V55H25Z" /><path d="M22 56V57H23V55H22Z" /><path d="M22 67H23V68H22Z" /><path d="M19 75H20V76H19Z" /><path d="M46 22H47V23H46Z" /><path d="M104 50H105V51H104Z" /><path d="M105 56H106V58H105V57Z" /><path d="M84 27H85V28H84Z" /><path d="M31 86H32V87H31Z" /><path d="M48 81H49V83H48V82Z" /><path d="M42 83H43V84H42Z" /><path d="M55 22H56V23H55Z" /><path d="M51 82H52V83H51Z" /><path d="M57 79H58V80H57Z" /><path d="M59 96V97H60V95H59Z" /><path d="M99 96H101V97H98V96Z" /><path d="M72 19H73V20H72Z" /><path d="M22 96H23V98H22V97Z" /><path d="M59 78H60V79H59Z" /><path d="M93 78H94V79H93Z" /><path d="M87 86H88V87H87Z" /><path d="M70 95H71V97H70V96Z" /><path d="M66 96V97H67V95H66Z" /><path d="M22 74H23V75H22Z" /><path d="M34 95H36V96H34Z" /><path d="M96 86H97V87H96Z" /><path d="M26 76H27V77H26Z" /><path d="M98 84H99V85H98Z" /><path d="M100 47H101V48H100Z" /><path d="M18 79H19V80H18Z" /><path d="M45 75H46V76H45Z" /><path d="M18 76H19V77H18Z" /><path d="M51 20H52V21H51Z" /><path d="M51 96V97H52V95H51Z" /><path d="M66 18H67V19H66Z" /><path d="M33 36H34V37H33Z" /><path d="M78 24H79V25H78Z" /><path d="M40 29H41V30H40Z" /><path d="M99 38H100V39H99Z" /><path d="M81 22H82V23H81Z" /><path d="M22 79H23V80H22Z" /><path d="M49 24H50V25H49Z" /><path d="M47 78H48V79H47Z" /><path d="M28 97H29V98H28Z" /><path d="M90 78H91V79H90Z" /><path d="M71 97H72V98H71Z" /><path d="M78 97H79V98H78Z" /><path d="M29 95H30V96H29Z" /><path d="M64 95H65V96H64Z" /><path d="M18 84H19V85H18Z" /><path d="M28 38H29V39H28Z" /><path d="M94 36H95V37H94Z" /><path d="M97 35H98V36H97Z" /><path d="M26 50H27V51H26Z" /><path d="M29 42H30V43H29Z" /><path d="M102 44H103V45H102Z" /><path d="M30 35H31V36H30Z" /><path d="M107 61H108V62H107Z" /></g><g fill="rgb(156,58,45)" stroke="none"><path d="M20 89H108V90H20Z" /><path d="M38 10H39V11H38Z" /><path d="M89 10H90V11H89Z" /><path d="M36 11H37V12H36Z" /><path d="M91 11H92V12H91Z" /><path d="M10 38H11V39H10Z" /><path d="M117 38H118V39H117Z" /><path d="M10 89H11V90H10Z" /><path d="M117 89H118V90H117Z" /><path d="M36 116H37V117H36Z" /><path d="M91 116H92V117H91Z" /><path d="M38 117H39V118H38Z" /><path d="M89 117H90V118H89Z" /><path d="M57 31H62V32H57Z" /><path d="M67 31H72V32H67Z" /><path d="M57 41H62V42H57Z" /><path d="M71 41H72V42H71Z" /><path d="M70 44H71V45H70Z" /><path d="M63 35H64V38H63V36Z" /><path d="M63 44V47H64V43H63Z" /><path d="M66 39H67V40H66Z" /><path d="M66 42H67V45H65V44H66V43Z" /><path d="M56 53H58V54H54V53H55Z" /><path d="M72 53H74V54H71V53Z" /><path d="M57 47H62V48H57Z" /><path d="M64 31H65V32H64Z" /><path d="M63 40H64V41H63Z" /><path d="M75 49H76V50H75Z" /><path d="M11 36H12V37H11Z" /><path d="M116 36H117V37H116Z" /><path d="M11 91H12V92H11Z" /><path d="M116 91H117V92H116Z" /><path d="M71 25H72V26H71Z" /><path d="M63 32H64V33H63Z" /><path d="M52 44H53V45H52Z" /><path d="M77 86H78V87H77Z" /><path d="M51 51H52V52H51Z" /><path d="M66 82H67V84H66V83Z" /><path d="M60 35H61V36H60Z" /><path d="M60 45H61V46H60Z" /><path d="M58 26H59V28H58V27Z" /><path d="M58 52V53H59V51H58Z" /><path d="M54 25H55V26H54Z" /><path d="M73 25H74V26H73Z" /><path d="M75 78H76V79H75Z" /><path d="M73 85H74V86H73Z" /><path d="M69 46H70V47H69Z" /><path d="M71 47H72V48H71Z" /><path d="M74 50H75V51H74Z" /><path d="M52 52H53V53H52Z" /><path d="M65 38H66V39H65Z" /><path d="M75 29H76V30H75Z" /><path d="M69 75H70V76H69Z" /><path d="M75 76H76V77H75Z" /></g></svg>