<?xml version="1.0" standalone="no"?>
<!DOCTYPE svg PUBLIC "-//W3C//DTD SVG 20010904//EN"
 "http://www.w3.org/TR/2001/REC-SVG-20010904/DTD/svg10.dtd">
<svg version="1.0" xmlns="http://www.w3.org/2000/svg"
 width="886.000000pt" height="886.000000pt" viewBox="0 0 886.000000 886.000000"
 preserveAspectRatio="xMidYMid meet">

<g transform="translate(0.000000,886.000000) scale(0.100000,-0.100000)"
fill="#000000" stroke="none">
<path d="M3843 8215 c-31 -22 -54 -102 -55 -189 -2 -169 101 -281 448 -482
268 -156 347 -221 403 -332 62 -124 32 -211 -102 -295 -33 -21 -312 -148 -567
-258 -257 -112 -372 -168 -462 -228 -206 -138 -240 -273 -107 -425 73 -83 152
-121 504 -248 361 -129 455 -185 486 -288 24 -78 -27 -192 -118 -266 -71 -59
-113 -103 -113 -121 0 -13 8 -15 45 -11 52 6 104 42 140 97 24 35 105 210 146
314 39 99 19 177 -68 258 -63 59 -118 91 -241 139 -193 75 -291 134 -329 198
-45 74 -20 156 76 245 79 72 182 131 426 242 236 107 311 148 378 204 107 89
158 173 165 272 9 136 -55 232 -223 333 -160 97 -242 156 -284 206 -64 76
-108 97 -240 114 -128 17 -156 31 -226 108 -55 61 -56 82 -14 181 27 63 30 81
27 144 -2 40 -8 77 -13 82 -19 19 -60 22 -82 6z m16 -32 c-13 -35 -29 -54 -40
-48 -10 7 -1 34 19 58 22 26 33 21 21 -10z m67 -46 c4 -29 3 -47 -3 -47 -13 0
-23 34 -23 80 0 48 18 26 26 -33z m372 -493 c12 -8 22 -19 22 -25 0 -6 -9 -8
-22 -3 -25 7 -78 42 -78 51 0 8 53 -7 78 -23z m530 -427 c39 -42 61 -127 32
-127 -22 0 -70 86 -70 125 0 31 10 32 38 2z m-768 -621 c0 -3 -61 -38 -136
-78 -192 -104 -257 -155 -313 -250 -25 -43 -52 -80 -59 -83 -17 -6 -26 19 -18
50 17 67 184 197 381 295 144 73 145 73 145 66z m345 -878 c39 -30 85 -107 85
-140 0 -43 -17 -34 -46 25 -15 28 -40 68 -55 88 -43 54 -35 67 16 27z"/>
<path d="M4839 6623 c-9 -2 -30 -21 -47 -41 -37 -47 -119 -92 -265 -143 -208
-75 -284 -121 -333 -205 -24 -41 -26 -49 -15 -84 20 -66 106 -135 377 -300
195 -118 290 -238 302 -375 7 -99 -18 -180 -83 -263 -101 -129 -80 -153 33
-37 105 110 186 214 224 292 28 58 33 78 33 143 0 64 -4 83 -30 128 -58 105
-150 171 -384 273 -140 61 -196 105 -207 164 -21 114 85 220 293 292 53 18
106 39 120 48 28 19 48 58 40 79 -7 19 -37 34 -58 29z m45 -44 c-8 -13 -24 -1
-24 18 0 13 3 13 15 3 8 -7 12 -16 9 -21z m-577 -296 c-20 -36 -81 -103 -96
-103 -25 0 -8 34 44 87 57 59 77 65 52 16z m681 -526 c43 -45 66 -140 43 -176
-14 -22 -28 -5 -34 44 -4 25 -18 67 -31 94 -32 62 -20 83 22 38z"/>
<path d="M3890 4894 c-481 -19 -869 -72 -954 -129 -17 -11 -37 -34 -45 -50
-23 -51 -53 -75 -111 -91 -156 -44 -217 -91 -246 -190 -20 -69 -14 -125 21
-202 21 -45 24 -63 19 -107 -9 -74 2 -120 37 -160 51 -58 116 -75 336 -89 106
-7 196 -15 199 -19 4 -4 -78 -7 -182 -7 -397 -1 -512 -31 -577 -154 -33 -63
-31 -166 5 -227 32 -54 56 -72 145 -105 100 -38 234 -54 453 -55 228 -1 272
-9 143 -28 -165 -23 -335 -98 -368 -162 -33 -62 -8 -142 58 -190 70 -50 120
-59 427 -74 157 -8 332 -17 390 -20 95 -5 507 -27 785 -41 61 -3 117 -8 125
-11 28 -10 -647 -101 -986 -133 -376 -35 -573 -59 -741 -91 -133 -25 -158 -43
-158 -114 0 -52 26 -85 99 -122 114 -58 268 -82 796 -123 146 -11 276 -21 290
-23 41 -3 -243 -77 -298 -77 -28 0 -81 7 -117 15 -54 13 -81 14 -148 5 -196
-26 -267 -70 -204 -127 33 -31 57 -40 117 -48 101 -12 344 32 353 65 6 24 79
47 216 66 132 18 269 15 454 -11 109 -15 135 -15 350 0 128 9 293 23 367 31
128 13 200 19 569 45 177 12 221 25 252 76 17 27 21 45 17 93 -7 99 -59 152
-178 181 -69 17 -192 17 -880 1 -592 -13 -1563 -15 -1539 -2 21 11 171 47 269
64 47 8 202 24 345 36 212 17 701 73 830 95 17 3 230 9 475 14 458 10 616 23
665 55 87 57 62 219 -41 262 -50 21 -306 33 -999 46 -605 11 -1018 22 -982 26
10 1 183 18 385 37 606 57 1067 71 1444 45 256 -18 451 -10 512 19 93 46 151
143 144 246 -5 75 -36 123 -101 157 -38 20 -63 23 -257 29 -118 4 -251 8 -294
8 -120 1 -79 23 121 66 118 25 201 61 233 102 14 18 38 27 95 38 137 27 221
90 250 189 32 107 9 194 -73 276 -67 67 -114 85 -252 102 -123 14 -130 20
-102 93 12 31 22 72 22 91 0 46 -45 95 -117 127 -145 64 -599 136 -1053 167
-158 10 -674 19 -810 14z m-56 -123 c9 -14 -16 -20 -217 -46 -419 -55 -448
-62 -627 -140 -75 -33 -117 -59 -156 -95 -56 -53 -87 -62 -104 -31 -23 44 23
94 115 125 28 9 73 36 100 60 123 107 246 132 662 135 122 0 224 -3 227 -8z
m1301 -16 c294 -35 514 -85 551 -126 17 -18 16 -19 -29 -19 -26 0 -127 13
-225 29 -98 16 -241 37 -317 45 -164 19 -185 22 -247 43 -46 14 -55 22 -41 36
11 12 174 8 308 -8z m903 -429 c89 -19 121 -34 101 -47 -23 -14 -99 -10 -221
11 -139 24 -188 38 -188 52 0 15 212 4 308 -16z m-2883 -534 l30 -9 -27 -6
c-15 -4 -94 -12 -175 -17 -222 -15 -380 -48 -485 -101 -32 -16 -63 -27 -68
-24 -19 12 -10 38 26 71 41 40 158 79 274 94 84 10 379 4 425 -8z m2929 -243
c40 -14 66 -42 52 -56 -14 -14 -111 -5 -177 17 -71 24 -92 37 -83 52 9 14 159
4 208 -13z m-3005 -335 c-20 -24 -209 -114 -239 -114 -43 0 -44 15 -3 49 74
61 286 118 242 65z m2494 -234 c115 -16 131 -20 117 -34 -28 -28 -631 -2 -725
32 -60 21 455 23 608 2z m-2513 -440 c-29 -16 -238 -51 -292 -48 -48 3 -51 4
-31 15 12 7 57 19 100 27 89 16 247 21 223 6z m2412 -100 c64 -4 127 -14 140
-21 23 -13 22 -13 -17 -25 -72 -22 -382 -15 -534 13 -53 9 -17 22 96 32 136
12 181 12 315 1z m-2076 -349 c-6 -9 -134 -34 -233 -45 -63 -8 -79 9 -23 24
91 24 267 39 256 21z"/>
<path d="M6650 4464 c-144 -38 -246 -118 -275 -217 -19 -64 -19 -100 0 -165
22 -72 58 -112 101 -112 46 0 70 25 124 128 58 112 120 152 238 152 72 0 130
-28 182 -87 106 -121 109 -378 6 -594 -53 -113 -98 -168 -194 -239 -86 -64
-87 -66 -112 -139 -33 -97 -52 -111 -165 -122 -48 -5 -102 -16 -121 -25 -50
-24 -195 -169 -242 -242 -69 -107 -76 -199 -21 -258 44 -46 116 -24 231 70 84
70 199 202 249 288 21 36 68 98 103 136 35 38 78 98 97 133 26 50 70 100 195
224 89 88 181 189 204 224 180 270 172 536 -23 717 -70 65 -133 99 -235 125
-91 23 -260 25 -342 3z m-6 -63 c7 -10 -53 -60 -101 -85 -39 -19 -73 -21 -73
-3 0 44 154 121 174 88z m607 -153 c43 -45 69 -118 69 -194 0 -43 -5 -77 -13
-89 -17 -23 -22 -14 -36 60 -6 33 -27 92 -46 131 -19 39 -35 77 -35 86 0 34
30 37 61 6z m-460 -1007 c-13 -24 -41 -28 -41 -7 0 8 7 22 16 31 22 22 40 5
25 -24z m-271 -216 c0 -12 -96 -108 -121 -121 -22 -11 -29 -11 -38 -1 -23 28
83 127 136 127 13 0 23 -2 23 -5z"/>
<path d="M1364 2980 c-71 -28 -71 -156 1 -188 43 -20 74 -14 107 18 27 27 30
36 25 72 -9 68 -79 119 -133 98z m16 -35 c0 -15 -32 -65 -41 -65 -16 0 -21 27
-9 49 9 18 50 31 50 16z m88 -17 c14 -14 16 -48 2 -48 -10 0 -30 32 -30 49 0
14 13 14 28 -1z"/>
<path d="M1305 2660 c8 -13 -14 -42 -26 -34 -12 7 -11 -3 1 -27 21 -39 90 -16
90 30 0 17 -30 41 -51 41 -12 0 -17 -5 -14 -10z m42 -32 c-3 -8 -6 -5 -6 6 -1
11 2 17 5 13 3 -3 4 -12 1 -19z"/>
<path d="M1865 2653 c-11 -3 -29 -12 -40 -20 -19 -13 -19 -14 8 -7 33 8 37
-12 7 -47 -20 -24 -20 -24 -35 -5 -14 19 -15 18 -15 -13 0 -23 9 -41 29 -62
25 -24 38 -29 79 -29 61 0 82 20 82 79 0 55 -14 79 -55 97 -19 8 -36 13 -37
13 -2 -1 -12 -4 -23 -6z m98 -89 c-11 -28 -33 -6 -33 33 0 14 2 14 19 -1 11
-10 17 -24 14 -32z"/>
<path d="M3170 1824 c-178 -9 -477 -38 -770 -74 -268 -34 -332 -45 -433 -77
-113 -35 -121 -36 -175 -25 -51 11 -60 10 -82 -6 -32 -24 -54 -92 -46 -137 4
-19 18 -48 32 -65 31 -36 145 -93 234 -117 108 -30 341 -23 765 20 198 21 372
40 387 43 42 8 77 -34 127 -153 24 -57 45 -103 47 -103 3 0 35 14 72 31 172
78 287 88 782 70 495 -19 739 -36 940 -67 120 -18 157 -31 171 -56 15 -28 6
-32 -59 -31 -31 1 -51 -1 -44 -3 6 -3 12 -10 12 -15 0 -14 -28 -11 -33 4 -2 6
-8 9 -12 5 -14 -13 8 -31 73 -60 160 -72 377 -77 523 -12 98 44 103 102 11
148 -76 39 -141 53 -402 90 -135 20 -344 51 -465 70 -121 19 -267 40 -325 47
-57 7 -100 14 -95 15 39 11 474 34 648 34 314 1 870 17 1132 34 127 9 345 20
485 27 206 9 262 14 290 28 106 53 108 203 3 247 -73 31 -714 45 -1378 30
-423 -9 -704 -3 -1430 34 -384 19 -847 31 -985 24z m3540 -114 c85 -5 166 -13
180 -19 14 -5 21 -10 15 -11 -155 -15 -249 -17 -469 -10 -269 10 -400 19 -391
28 18 18 433 26 665 12z m-3955 -9 c-15 -14 -255 -66 -463 -100 -181 -31 -332
-40 -332 -21 0 23 240 77 490 109 157 21 320 27 305 12z m-1015 -118 c-18 -32
-35 -39 -43 -19 -8 21 32 71 47 56 8 -8 7 -18 -4 -37z m3879 -439 c31 -8 67
-23 81 -32 l25 -17 -27 -3 c-35 -4 -168 32 -216 59 l-37 20 59 -7 c32 -3 84
-12 115 -20z"/>
<path d="M7655 1178 c-11 -6 -40 -33 -65 -61 l-45 -50 -100 -9 c-163 -16 -162
-26 5 -47 77 -9 105 -18 145 -43 97 -61 104 -63 210 -63 153 0 225 35 225 111
0 43 -28 75 -98 112 -101 54 -229 77 -277 50z m69 -27 c8 -13 -31 -59 -66 -77
-35 -18 -54 -7 -43 26 12 37 94 76 109 51z m216 -73 c51 -26 63 -48 28 -48
-22 0 -118 53 -118 65 0 13 50 3 90 -17z"/>
<path d="M7120 1090 c0 -6 -4 -8 -10 -5 -5 3 -10 2 -10 -4 0 -15 27 -27 87
-40 82 -17 114 5 46 32 -56 21 -113 30 -113 17z"/>
</g>
</svg>
