<?xml version="1.0" standalone="no"?>
<!DOCTYPE svg PUBLIC "-//W3C//DTD SVG 20010904//EN"
 "http://www.w3.org/TR/2001/REC-SVG-20010904/DTD/svg10.dtd">
<svg version="1.0" xmlns="http://www.w3.org/2000/svg"
 width="1080.000000pt" height="1080.000000pt" viewBox="0 0 1080.000000 1080.000000"
 preserveAspectRatio="xMidYMid meet">

<g transform="translate(0.000000,1080.000000) scale(0.100000,-0.100000)"
fill="#000000" stroke="none">
<path d="M5147 10399 c-2274 -113 -4193 -1759 -4651 -3989 -115 -559 -131
-1185 -46 -1760 254 -1711 1397 -3182 3000 -3862 1235 -524 2665 -524 3900 0
1478 627 2574 1932 2928 3487 168 735 168 1515 0 2250 -354 1555 -1450 2860
-2928 3487 -543 230 -1106 357 -1725 388 -219 11 -246 11 -478 -1z m486 -724
c163 -80 257 -227 257 -403 0 -56 4 -79 13 -79 21 -1 150 -23 192 -32 22 -5
74 -17 115 -26 352 -78 768 -256 1105 -473 299 -192 647 -512 848 -777 34 -44
63 -82 66 -85 16 -14 182 -263 216 -325 40 -70 178 -344 192 -380 18 -47 54
-138 63 -160 13 -30 66 -193 84 -255 34 -119 38 -137 52 -205 48 -230 73 -420
81 -626 l5 -147 27 -5 c49 -10 125 -70 166 -131 36 -56 39 -65 43 -146 4 -77
1 -92 -21 -141 -29 -60 -55 -92 -107 -130 -73 -54 -106 -59 -362 -59 l-236 0
-4 -87 c-4 -74 -10 -99 -37 -153 -40 -81 -126 -166 -207 -206 l-59 -29 -2718
-3 -2717 -2 -73 34 c-155 74 -256 225 -257 384 l0 62 -235 0 c-211 0 -240 2
-289 20 -154 58 -244 242 -190 387 34 93 107 168 190 196 l39 14 7 184 c4 101
11 211 17 244 6 33 15 92 21 130 9 66 21 130 50 270 7 33 17 64 21 69 5 6 9
18 9 28 0 9 6 37 14 60 7 24 24 77 37 118 12 41 26 79 31 85 4 5 8 15 8 23 0
8 6 28 14 45 8 18 30 70 49 117 71 173 223 451 342 624 91 132 283 364 398
479 309 312 701 582 1082 746 28 12 59 26 70 31 178 83 548 187 810 227 l50 8
5 107 c3 58 11 112 17 120 6 7 14 24 18 38 12 42 82 127 138 168 98 73 131 81
315 82 l163 0 72 -35z m-3643 -5175 c147 -28 256 -129 277 -254 l6 -36 -116 0
-115 0 -12 34 c-23 69 -102 107 -180 86 -52 -14 -80 -51 -80 -105 0 -74 41
-108 203 -165 175 -62 240 -102 284 -177 25 -44 28 -57 28 -143 0 -111 -16
-151 -87 -216 -69 -64 -121 -79 -268 -79 -119 0 -128 1 -192 32 -105 50 -174
133 -193 236 l-7 37 115 0 114 0 17 -45 c26 -66 65 -90 149 -90 65 0 70 2 98
33 23 26 29 42 29 78 0 40 -5 51 -37 84 -25 24 -64 46 -113 65 -235 87 -233
86 -290 144 -64 64 -80 106 -80 202 0 200 203 326 450 279z m1075 -15 c136
-36 242 -120 300 -239 19 -39 37 -83 41 -98 l6 -28 -113 0 -114 0 -27 49 c-47
85 -134 131 -247 131 -114 0 -204 -59 -253 -165 -20 -43 -23 -66 -23 -165 0
-129 14 -174 76 -245 79 -90 221 -112 338 -54 60 30 111 83 126 130 6 17 17
19 122 19 l115 0 -6 -27 c-15 -60 -65 -151 -114 -204 -57 -62 -139 -111 -227
-134 -73 -19 -223 -19 -291 -1 -174 46 -306 185 -349 368 -19 81 -19 215 0
296 43 180 173 322 336 366 73 20 230 20 304 1z m1236 -510 c104 -280 189
-513 189 -517 0 -5 -51 -8 -113 -8 l-113 0 -34 105 -34 105 -206 0 -207 0 -35
-102 -35 -103 -116 -3 -116 -3 29 78 c33 92 333 895 349 936 l11 28 121 -3
120 -3 190 -510z m740 172 l224 -344 3 344 2 343 110 0 110 0 0 -520 0 -521
-111 3 -111 3 -221 337 -222 336 -3 -339 -2 -339 -110 0 -110 0 0 520 0 520
109 0 108 0 224 -343z m2269 258 l0 -85 -205 0 -205 0 0 -130 0 -130 180 0
180 0 0 -85 0 -85 -180 0 -180 0 0 -135 0 -135 205 0 205 0 0 -85 0 -85 -315
0 -315 0 0 520 0 520 315 0 315 0 0 -85z m881 -430 c104 -280 189 -513 189
-517 0 -5 -51 -8 -113 -8 l-113 0 -34 105 -34 105 -206 0 -207 0 -35 -102 -35
-103 -116 -3 -116 -3 29 78 c33 92 333 895 349 936 l11 28 121 -3 120 -3 190
-510z m1017 433 l-3 -83 -142 -3 -143 -3 0 -434 0 -435 -110 0 -110 0 0 435 0
435 -140 0 -140 0 0 85 0 85 395 0 396 0 -3 -82z m-7263 -1613 c14 -13 25 -29
25 -35 0 -16 -39 -12 -57 6 -21 21 -58 14 -58 -11 0 -14 15 -27 52 -44 61 -28
80 -60 63 -102 -22 -53 -112 -60 -150 -11 -11 13 -20 29 -20 33 0 17 46 9 63
-11 20 -23 40 -26 56 -6 18 22 3 43 -45 61 -74 28 -94 76 -49 120 33 34 87 34
120 0z m530 11 c19 -8 41 -28 50 -45 15 -30 15 -31 -8 -31 -13 0 -32 9 -42 20
-41 46 -125 12 -125 -51 0 -32 15 -69 34 -81 23 -16 67 -8 92 17 14 14 34 25
44 25 24 0 24 -3 6 -38 -28 -55 -115 -74 -170 -38 -56 36 -70 129 -28 186 37
49 86 61 147 36z m1012 -73 l58 -86 3 86 c3 79 5 87 22 87 19 0 20 -7 20 -125
0 -123 0 -125 -22 -125 -17 0 -35 19 -73 77 l-50 77 -3 -77 c-3 -74 -4 -77
-27 -77 l-25 0 0 125 c0 118 1 125 20 125 14 0 37 -26 77 -87z m968 73 c19 -8
41 -28 50 -45 15 -30 15 -31 -8 -31 -13 0 -32 9 -42 20 -41 46 -125 12 -125
-51 0 -32 15 -69 34 -81 23 -16 67 -8 92 17 14 14 34 25 44 25 24 0 24 -3 6
-38 -28 -55 -115 -74 -170 -38 -56 36 -70 129 -28 186 37 49 86 61 147 36z
m433 -43 l3 -53 49 0 49 0 3 53 c3 45 6 52 26 55 22 3 22 2 22 -122 l0 -126
-25 0 c-23 0 -25 3 -25 50 l0 50 -50 0 -50 0 0 -50 c0 -47 -2 -50 -25 -50
l-25 0 0 126 c0 124 0 125 23 122 19 -3 22 -10 25 -55z m673 34 c103 -69 57
-232 -66 -232 -56 0 -95 29 -115 83 -13 37 -13 47 0 84 18 50 67 88 115 88 18
0 47 -10 66 -23z m560 0 c103 -69 57 -232 -66 -232 -56 0 -95 29 -115 83 -13
37 -13 47 0 84 18 50 67 88 115 88 18 0 47 -10 66 -23z m524 -2 c14 -13 25
-29 25 -35 0 -16 -39 -12 -57 6 -21 21 -58 14 -58 -11 0 -14 15 -27 52 -44 61
-28 80 -60 63 -102 -22 -53 -112 -60 -150 -11 -11 13 -20 29 -20 33 0 17 46 9
63 -11 20 -23 40 -26 56 -6 18 22 3 43 -45 61 -74 28 -94 76 -49 120 33 34 87
34 120 0z m503 3 c3 -15 -4 -18 -47 -18 l-51 0 0 -35 c0 -35 0 -35 46 -35 38
0 45 -3 42 -17 -2 -13 -15 -19 -46 -21 -39 -3 -42 -5 -42 -32 0 -27 3 -29 47
-32 36 -2 49 -7 51 -20 3 -16 -6 -18 -72 -18 l-76 0 0 125 0 126 72 -3 c60 -2
73 -6 76 -20z m830 0 c3 -15 -4 -18 -47 -18 l-51 0 0 -35 c0 -35 0 -35 46 -35
38 0 45 -3 42 -17 -2 -13 -15 -19 -46 -21 -39 -3 -42 -5 -42 -32 0 -27 3 -29
47 -32 36 -2 49 -7 51 -20 3 -16 -6 -18 -72 -18 l-76 0 0 125 0 126 72 -3 c60
-2 73 -6 76 -20z m1012 2 c0 -16 -7 -20 -30 -20 l-30 0 0 -105 0 -105 -25 0
-25 0 0 105 0 105 -35 0 c-28 0 -35 4 -35 20 0 19 7 20 90 20 83 0 90 -1 90
-20z m-5968 -95 c55 -144 53 -135 24 -135 -19 0 -27 7 -32 25 -6 22 -11 25
-55 25 -44 0 -51 -3 -59 -25 -7 -17 -17 -25 -34 -25 l-25 0 25 68 c14 37 35
91 46 120 18 47 23 53 46 50 23 -3 30 -14 64 -103z m5440 0 c55 -144 53 -135
24 -135 -19 0 -27 7 -32 25 -6 22 -11 25 -55 25 -44 0 -51 -3 -59 -25 -7 -17
-17 -25 -34 -25 l-25 0 25 68 c14 37 35 91 46 120 18 47 23 53 46 50 23 -3 30
-14 64 -103z"/>
<path d="M5285 9444 c-73 -27 -124 -99 -125 -176 l0 -38 236 0 237 0 -6 61
c-7 79 -42 127 -113 151 -60 21 -174 22 -229 2z"/>
<path d="M5185 8963 c-166 -8 -410 -49 -665 -113 -215 -54 -583 -211 -800
-343 -531 -322 -954 -774 -1229 -1314 -98 -192 -142 -299 -206 -503 -52 -166
-57 -185 -106 -420 -19 -90 -47 -383 -48 -497 l-1 -63 3269 0 3270 0 -4 33
c-3 17 -9 115 -16 217 -6 101 -12 187 -15 191 -2 4 -8 40 -14 80 -11 82 -21
129 -58 269 -13 52 -28 109 -32 125 -14 52 -92 280 -100 290 -4 6 -11 21 -15
35 -12 37 -95 217 -133 285 -45 83 -155 264 -200 330 -331 485 -841 903 -1382
1133 -494 210 -962 292 -1515 265z m-341 -2777 c67 -28 95 -119 56 -183 -41
-67 38 -63 -1200 -63 -1238 0 -1159 -4 -1200 63 -37 61 -14 148 48 182 39 21
2245 22 2296 1z m486 -1 c48 -25 70 -62 70 -118 0 -46 -4 -54 -40 -89 l-41
-38 -104 0 -104 0 -41 38 c-36 35 -40 44 -40 88 0 56 17 86 64 115 40 24 191
27 236 4z"/>
<path d="M1910 5440 c-24 -24 -26 -53 -4 -74 14 -15 342 -16 3497 -14 l3481 3
16 28 c14 27 14 29 -13 53 l-28 24 -3465 0 c-3451 0 -3464 0 -3484 -20z"/>
<path d="M2610 5067 c0 -45 30 -123 57 -150 65 -61 -136 -57 2729 -57 l2613 0
56 21 c69 26 104 74 112 155 l6 54 -2787 0 -2786 0 0 -23z"/>
<path d="M3914 4034 l-71 -204 145 0 c111 0 143 3 140 13 -3 6 -33 95 -68 197
-35 102 -66 188 -69 192 -3 4 -38 -85 -77 -198z"/>
<path d="M7804 4034 l-71 -204 145 0 c111 0 143 3 140 13 -3 6 -33 95 -68 197
-35 102 -66 188 -69 192 -3 4 -38 -85 -77 -198z"/>
<path d="M5440 2750 c-26 -26 -26 -80 1 -114 45 -57 129 -18 129 60 0 45 -30
74 -75 74 -22 0 -43 -8 -55 -20z"/>
<path d="M6000 2750 c-26 -26 -26 -80 1 -114 45 -57 129 -18 129 60 0 45 -30
74 -75 74 -22 0 -43 -8 -55 -20z"/>
<path d="M2942 2711 c-16 -52 -16 -51 17 -51 l30 0 -16 45 c-8 25 -16 45 -17
45 -2 0 -8 -17 -14 -39z"/>
<path d="M8382 2711 c-16 -52 -16 -51 17 -51 l30 0 -16 45 c-8 25 -16 45 -17
45 -2 0 -8 -17 -14 -39z"/>
</g>
</svg>
